<svg xmlns="http://www.w3.org/2000/svg" width="51" height="51" fill="none" viewBox="0 0 51 51"><g clip-path="url(#clip0)"><path fill="#FFF" d="M40.1504 2.16694C39.0615 1.09313 37.6137 0.501831 36.0738 0.501831C34.5338 0.501831 33.0861 1.09323 31.9973 2.16694L2.89708 30.8629C2.24755 31.5034 1.8034 32.3103 1.61237 33.1964L0.0216555 40.58C-0.0480614 40.9035 0.0529489 41.2397 0.290125 41.4735C0.477786 41.6585 0.73051 41.7595 0.990364 41.7595C1.05879 41.7595 1.12782 41.7525 1.19615 41.7382L8.68379 40.1696C9.58228 39.9814 10.4006 39.5434 11.0502 38.9028L40.1504 10.2068C42.3982 7.99026 42.3982 4.38359 40.1504 2.16694ZM29.5196 7.3722L34.8718 12.6499L33.8028 13.704L28.4507 8.42629L29.5196 7.3722ZM24.5807 12.2425L26.5565 14.1908L8.12209 32.3692C7.44423 32.3824 6.79826 32.1287 6.31153 31.6486C6.06594 31.4065 5.87699 31.1215 5.7527 30.809L24.5807 12.2425ZM2.74428 37.3412L4.48067 39.0535L2.27587 39.5154L2.74428 37.3412ZM8.27222 38.2591L6.79083 38.5694L3.23497 35.063L3.54969 33.6024C3.65951 33.0924 3.91352 32.6276 4.28469 32.2568C4.46185 32.5343 4.6714 32.7935 4.91095 33.0297C5.64159 33.7502 6.57287 34.1875 7.56832 34.2965C7.67883 35.278 8.12219 36.1963 8.85293 36.9168C9.09248 37.1531 9.35531 37.3597 9.63675 37.5344C9.26073 37.9003 8.78935 38.1508 8.27222 38.2591ZM11.1049 36.0869C10.788 35.9643 10.499 35.778 10.2534 35.5358C9.76648 35.0557 9.50851 34.4178 9.52267 33.7503L27.9571 15.5719L29.9328 17.5202L11.1049 36.0869ZM31.3334 16.1392L25.9813 10.8615L27.0502 9.80741L32.4023 15.0851L31.3334 16.1392ZM38.7498 8.82579L36.2724 11.2689L30.9202 5.99118L33.3977 3.54796C34.1125 2.84309 35.0629 2.45492 36.0737 2.45492C37.0845 2.45492 38.035 2.84309 38.7497 3.54796C40.2254 5.00311 40.2254 7.37064 38.7498 8.82579Z"/><path fill="#FFF" d="M49.7132 32.8892C49.1662 32.8892 48.7229 33.3264 48.7229 33.8657V47.9974C48.7229 48.3001 48.473 48.5465 48.1661 48.5465H9.7398C9.40399 48.5465 9.26822 48.3095 9.22544 48.2076C9.18265 48.1056 9.10868 47.8433 9.34615 47.6092L12.8504 44.1536L14.2637 45.5473C14.4571 45.738 14.7105 45.8333 14.9639 45.8333C15.2173 45.8333 15.4708 45.738 15.6642 45.5473C16.0509 45.1659 16.0509 44.5476 15.6642 44.1661L14.251 42.7725L18.8539 38.2335L20.2671 39.6271C20.4605 39.8178 20.7139 39.9131 20.9673 39.9131C21.2207 39.9131 21.4742 39.8178 21.6675 39.6271C22.0542 39.2457 22.0542 38.6274 21.6675 38.2459L20.2544 36.8524L24.8573 32.3134L26.2704 33.707C26.4638 33.8977 26.7173 33.993 26.9707 33.993C27.2242 33.993 27.4775 33.8976 27.6709 33.707C28.0576 33.3256 28.0576 32.7073 27.6709 32.3259L26.2578 30.9324L30.8607 26.3934L32.2738 27.787C32.4672 27.9777 32.7206 28.073 32.9741 28.073C33.2276 28.073 33.4809 27.9776 33.6743 27.787C34.061 27.4056 34.061 26.7873 33.6743 26.4059L32.2611 25.0124L36.864 20.4734L38.2772 21.867C38.4706 22.0577 38.724 22.153 38.9774 22.153C39.2309 22.153 39.4843 22.0576 39.6777 21.867C40.0644 21.4856 40.0644 20.8673 39.6777 20.4859L38.2644 19.0924L42.8673 14.5534L44.2805 15.947C44.4739 16.1377 44.7273 16.233 44.9807 16.233C45.2341 16.233 45.4876 16.1376 45.681 15.947C46.0677 15.5656 46.0677 14.9473 45.681 14.5659L44.2678 13.1723L47.7721 9.71671C48.0095 9.48253 48.2755 9.55548 48.3788 9.59767C48.4822 9.63986 48.7226 9.77384 48.7226 10.1049V23.1239C48.7226 23.6632 49.1659 24.1004 49.7129 24.1004C50.2597 24.1004 50.7032 23.6632 50.7032 23.1239V10.1048C50.7032 9.08918 50.0883 8.18178 49.1368 7.79311C48.1857 7.40455 47.1 7.61734 46.3716 8.33549L7.94567 46.2281C7.21741 46.9463 7.00143 48.0165 7.39556 48.9549C7.7897 49.8933 8.70979 50.4995 9.7398 50.4995H48.1661C49.5652 50.4995 50.7035 49.3771 50.7035 47.9973V33.8657C50.7035 33.3264 50.2601 32.8892 49.7132 32.8892Z"/><path fill="#FFF" d="M49.7144 27.5507H49.7135C49.1665 27.5507 48.7236 27.9879 48.7236 28.5273C48.7236 29.0666 49.1675 29.5038 49.7144 29.5038C50.2614 29.5038 50.7048 29.0666 50.7048 28.5273C50.7048 27.9879 50.2614 27.5507 49.7144 27.5507Z"/><path fill="#FFF" d="M42.0808 22.2342L22.0401 41.9966C21.7568 42.2759 21.6722 42.6959 21.8254 43.0609C21.9787 43.4258 22.3397 43.6637 22.7403 43.6637L42.7811 43.6638C43.0437 43.6638 43.2955 43.5609 43.4813 43.3778C43.667 43.1947 43.7713 42.9462 43.7713 42.6873V22.9248C43.7713 22.5298 43.5301 22.1737 43.16 22.0225C42.79 21.8714 42.3639 21.955 42.0808 22.2342ZM41.7908 41.7107L25.1311 41.7106L41.7908 25.2824V41.7107Z"/></g><defs><clipPath id="clip0"><rect width="50.704" height="50" fill="#fff" transform="translate(0 0.5)"/></clipPath></defs></svg>