<svg width="55" height="55" viewBox="0 0 55 55" fill="none" xmlns="http://www.w3.org/2000/svg">
<path d="M50.9717 7.68066H48.1507C47.7056 7.68066 47.345 8.04128 47.345 8.48633C47.345 8.93138 47.7056 9.29199 48.1507 9.29199H50.9717C52.3044 9.29199 53.3887 10.3763 53.3887 11.709V15.415H1.61133V11.709C1.61133 10.3763 2.69554 9.29199 4.02832 9.29199H44.6133C45.0583 9.29199 45.4189 8.93138 45.4189 8.48633C45.4189 8.04128 45.0583 7.68066 44.6133 7.68066H4.02832C1.80705 7.68066 0 9.48772 0 11.709V20.5907C0 21.0358 0.360723 21.3964 0.805664 21.3964C1.25061 21.3964 1.61133 21.0358 1.61133 20.5907V17.0264H53.3887V37.7981C53.3887 38.2432 53.7493 38.6038 54.1943 38.6038C54.6394 38.6038 55 38.2432 55 37.7981V11.709C55 9.48772 53.1929 7.68066 50.9717 7.68066Z" fill="white"/>
<path d="M54.1943 40.39C53.7493 40.39 53.3887 40.7506 53.3887 41.1956V43.291C53.3887 44.6237 52.3044 45.708 50.9717 45.708H4.02832C2.69554 45.708 1.61133 44.6237 1.61133 43.291V24.0482C1.61133 23.6032 1.25061 23.2426 0.805664 23.2426C0.360723 23.2426 0 23.6032 0 24.0482V43.291C0 45.5123 1.80705 47.3193 4.02832 47.3193H50.9717C53.1929 47.3193 55 45.5123 55 43.291V41.1956C55 40.7507 54.6394 40.39 54.1943 40.39Z" fill="white"/>
<path d="M11.6534 25.1858C11.3387 24.8713 10.8286 24.8713 10.514 25.1858L5.67253 30.0274C5.52139 30.1785 5.43652 30.3833 5.43652 30.5971C5.43652 30.8109 5.52139 31.0156 5.67253 31.1669L10.45 35.9444C10.6073 36.1016 10.8135 36.1803 11.0197 36.1803C11.2258 36.1803 11.4321 36.1016 11.5893 35.9444C11.904 35.6296 11.904 35.1196 11.5893 34.8049L7.3815 30.5972L11.6534 26.3254C11.9681 26.0106 11.9681 25.5006 11.6534 25.1858Z" fill="white"/>
<path d="M22.488 35.9442C22.6453 36.1014 22.8515 36.1801 23.0576 36.1801C23.2638 36.1801 23.47 36.1014 23.6273 35.9442L28.4049 31.1667C28.5559 31.0156 28.6408 30.8107 28.6408 30.5969C28.6408 30.3832 28.5559 30.1784 28.4049 30.0272L23.5633 25.1857C23.2486 24.8711 22.7385 24.8711 22.424 25.1857C22.1093 25.5004 22.1093 26.0105 22.424 26.3251L26.6959 30.5969L22.4881 34.8047C22.1734 35.1195 22.1734 35.6295 22.488 35.9442Z" fill="white"/>
<path d="M14.1787 38.9119C14.5037 38.9119 14.8099 38.7138 14.9321 38.3919L20.657 23.31C20.8149 22.894 20.6057 22.4287 20.1897 22.2708C19.7738 22.1128 19.3084 22.3222 19.1506 22.7381L13.4257 37.8202C13.2678 38.2361 13.477 38.7013 13.893 38.8592C13.9871 38.895 14.0837 38.9119 14.1787 38.9119Z" fill="white"/>
<path d="M3.54541 12.3934C3.54541 13.726 4.62962 14.8104 5.9624 14.8104C7.29519 14.8104 8.37939 13.726 8.37939 12.3934C8.37939 11.0607 7.29519 9.97638 5.9624 9.97638C4.62962 9.97638 3.54541 11.0607 3.54541 12.3934ZM6.76807 12.3934C6.76807 12.8377 6.4067 13.199 5.9624 13.199C5.51811 13.199 5.15674 12.8377 5.15674 12.3934C5.15674 11.9491 5.51811 11.5877 5.9624 11.5877C6.4067 11.5877 6.76807 11.9491 6.76807 12.3934Z" fill="white"/>
<path d="M9.79297 12.3934C9.79297 13.726 10.8772 14.8104 12.21 14.8104C13.5427 14.8104 14.627 13.726 14.627 12.3934C14.627 11.0607 13.5427 9.97638 12.21 9.97638C10.8772 9.97638 9.79297 11.0607 9.79297 12.3934ZM13.0156 12.3934C13.0156 12.8377 12.6543 13.199 12.21 13.199C11.7657 13.199 11.4043 12.8377 11.4043 12.3934C11.4043 11.9491 11.7657 11.5877 12.21 11.5877C12.6543 11.5877 13.0156 11.9491 13.0156 12.3934Z" fill="white"/>
<path d="M16.041 12.3934C16.041 13.726 17.1252 14.8104 18.458 14.8104C19.7908 14.8104 20.875 13.726 20.875 12.3934C20.875 11.0607 19.7908 9.97638 18.458 9.97638C17.1252 9.97638 16.041 11.0607 16.041 12.3934ZM19.2637 12.3934C19.2637 12.8377 18.9023 13.199 18.458 13.199C18.0137 13.199 17.6523 12.8377 17.6523 12.3934C17.6523 11.9491 18.0137 11.5877 18.458 11.5877C18.9023 11.5877 19.2637 11.9491 19.2637 12.3934Z" fill="white"/>
<path d="M36.04 26.0356H41.0889C42.4215 26.0356 43.5059 24.9513 43.5059 23.6187C43.5059 22.286 42.4215 21.2017 41.0889 21.2017H36.04C34.7074 21.2017 33.623 22.286 33.623 23.6187C33.623 24.9513 34.7074 26.0356 36.04 26.0356ZM36.04 22.813H41.0889C41.5332 22.813 41.8945 23.1744 41.8945 23.6187C41.8945 24.0629 41.5332 24.4243 41.0889 24.4243H36.04C35.5957 24.4243 35.2344 24.0629 35.2344 23.6187C35.2344 23.1744 35.5957 22.813 36.04 22.813Z" fill="white"/>
<path d="M36.04 32.4809H49.3604C50.693 32.4809 51.7773 31.3966 51.7773 30.064C51.7773 28.7313 50.693 27.647 49.3604 27.647H36.04C34.7074 27.647 33.623 28.7313 33.623 30.064C33.623 31.3966 34.7074 32.4809 36.04 32.4809ZM36.04 29.2583H49.3604C49.8046 29.2583 50.166 29.6197 50.166 30.064C50.166 30.5083 49.8046 30.8696 49.3604 30.8696H36.04C35.5957 30.8696 35.2344 30.5083 35.2344 30.064C35.2344 29.6197 35.5957 29.2583 36.04 29.2583Z" fill="white"/>
<path d="M36.04 38.9262H45.4035C46.7361 38.9262 47.8205 37.8419 47.8205 36.5092C47.8205 35.1765 46.7361 34.0922 45.4035 34.0922H36.04C34.7074 34.0922 33.623 35.1765 33.623 36.5092C33.623 37.8419 34.7074 38.9262 36.04 38.9262ZM36.04 35.7036H45.4035C45.8478 35.7036 46.2091 36.0649 46.2091 36.5092C46.2091 36.9535 45.8478 37.3149 45.4035 37.3149H36.04C35.5957 37.3149 35.2344 36.9535 35.2344 36.5092C35.2344 36.0649 35.5957 35.7036 36.04 35.7036Z" fill="white"/>
</svg>
