<svg width="50" height="51" viewBox="0 0 50 51" fill="none" xmlns="http://www.w3.org/2000/svg">
<g clip-path="url(#clip0)">
<path d="M24.5478 42.7646C24.3662 42.5829 24.1143 42.4783 23.8574 42.4783C23.6006 42.4783 23.3486 42.5828 23.167 42.7646C22.9854 42.9461 22.8809 43.1981 22.8809 43.4549C22.8809 43.7128 22.9854 43.9637 23.167 44.1453C23.3486 44.3279 23.6006 44.4315 23.8574 44.4315C24.1143 44.4315 24.3662 44.3279 24.5478 44.1453C24.7295 43.9637 24.834 43.7118 24.834 43.4549C24.834 43.1981 24.7294 42.9461 24.5478 42.7646Z" fill="white"/>
<path d="M29.1974 33.7557V26.57C29.1974 26.2456 29.0363 25.9423 28.7674 25.7607C28.4986 25.5792 28.1571 25.5431 27.856 25.6641L11.0286 32.4412H5.60868C2.51611 32.4412 0 34.9573 0 38.0501C0 41.1428 2.51611 43.6589 5.60888 43.6589H6.25428V49.5234C6.25428 50.0626 6.69149 50.4999 7.23084 50.4999H11.2176C11.7569 50.4999 12.1941 50.0626 12.1941 49.5234V44.13L27.8565 50.4294C27.974 50.4767 28.0977 50.5 28.2207 50.5C28.4129 50.5 28.6038 50.4433 28.7676 50.3327C29.0364 50.1511 29.1974 49.8478 29.1974 49.5235V42.3378C31.1558 41.8922 32.6224 40.1381 32.6224 38.0468C32.6224 35.9555 31.1558 34.2013 29.1974 33.7557ZM10.2409 48.5468H8.20741V43.6588H10.241V48.5468H10.2409ZM10.2411 41.7057H5.60888C3.59306 41.7057 1.95312 40.0658 1.95312 38.0501C1.95312 36.0342 3.59306 34.3943 5.60888 34.3943H10.2415L10.2411 41.7057ZM27.2444 48.078H27.2443L12.1946 42.025V34.0771L22.8808 29.7734V39.4648C22.8808 40.0041 23.318 40.4414 23.8574 40.4414C24.3967 40.4414 24.8339 40.0041 24.8339 39.4648V28.9868L27.2444 28.016V48.078ZM29.1974 40.2914V35.8021C30.0627 36.18 30.6693 37.0437 30.6693 38.0467C30.6693 39.0498 30.0628 39.9134 29.1974 40.2914Z" fill="white"/>
<path d="M41.9383 37.0991H36.4092C35.8698 37.0991 35.4326 37.5364 35.4326 38.0756C35.4326 38.6149 35.8698 39.0522 36.4092 39.0522H41.9383C42.4776 39.0522 42.9148 38.6149 42.9148 38.0756C42.9148 37.5364 42.4776 37.0991 41.9383 37.0991Z" fill="white"/>
<path d="M37.4045 29.9431C37.0231 29.5619 36.4048 29.5619 36.0233 29.9431L34.1161 31.8503C33.7347 32.2317 33.7347 32.85 34.1161 33.2315C34.3069 33.4221 34.5568 33.5175 34.8067 33.5175C35.0566 33.5175 35.3066 33.4221 35.4972 33.2315L37.4045 31.3243C37.7858 30.9429 37.7858 30.3245 37.4045 29.9431Z" fill="white"/>
<path d="M37.476 44.7359L35.5051 42.7648C35.1237 42.3835 34.5053 42.3835 34.1239 42.7648C33.7426 43.1461 33.7426 43.7645 34.1239 44.1459L36.095 46.117C36.2857 46.3076 36.5356 46.403 36.7855 46.403C37.0354 46.403 37.2854 46.3076 37.476 46.117C37.8574 45.7357 37.8574 45.1173 37.476 44.7359Z" fill="white"/>
<path d="M46.0937 0.5H27.9296C25.7757 0.5 24.0234 2.25234 24.0234 4.40624V4.79687H7.61718C6.3248 4.79687 5.27344 5.84833 5.27344 7.14061V22.5703C5.27344 23.8626 6.3248 24.914 7.61718 24.914H8.62626V27.9088C8.62626 28.3039 8.86425 28.6599 9.22909 28.8111C9.3499 28.8611 9.47675 28.8854 9.60263 28.8854C9.85673 28.8854 10.1065 28.7862 10.2934 28.5994L13.9787 24.914H33.3769C34.6693 24.914 35.7206 23.8626 35.7206 22.5703V19.6406H46.0937C48.2476 19.6406 49.9999 17.8882 49.9999 15.7343V4.40624C49.9998 2.25234 48.2476 0.5 46.0937 0.5ZM33.7675 22.5703C33.7675 22.7857 33.5923 22.9609 33.3769 22.9609H13.5742C13.3152 22.9609 13.0668 23.0638 12.8837 23.2469L10.5795 25.5512V23.9375C10.5795 23.3982 10.1423 22.9609 9.60292 22.9609H7.61718C7.40175 22.9609 7.22656 22.7857 7.22656 22.5703V7.14061C7.22656 6.92518 7.40175 6.74999 7.61718 6.74999H24.0234V15.7343C24.0234 17.8882 25.7757 19.6406 27.9296 19.6406H33.7675V22.5703ZM48.0468 15.7343C48.0468 16.8113 47.1706 17.6875 46.0937 17.6875H27.9296C26.8527 17.6875 25.9765 16.8113 25.9765 15.7343V4.40624C25.9765 3.32929 26.8527 2.45312 27.9296 2.45312H46.0937C47.1706 2.45312 48.0468 3.32929 48.0468 4.40624V15.7343Z" fill="white"/>
<path d="M40.9355 9.22459L34.252 5.36581C33.9498 5.1913 33.5775 5.1913 33.2754 5.36581C32.9732 5.54022 32.7871 5.86268 32.7871 6.21151V13.929C32.7871 14.2778 32.9732 14.6003 33.2754 14.7747C33.4265 14.862 33.595 14.9055 33.7637 14.9055C33.9323 14.9055 34.1009 14.862 34.252 14.7747L40.9355 10.9159C41.2377 10.7415 41.4238 10.419 41.4238 10.0702C41.4238 9.72137 41.2378 9.399 40.9355 9.22459ZM34.7402 12.2376V7.90301L38.4941 10.0703L34.7402 12.2376Z" fill="white"/>
<path d="M20.9482 10.7539H11.1826C10.6433 10.7539 10.2061 11.1912 10.2061 11.7305C10.2061 12.2697 10.6433 12.707 11.1826 12.707H20.9482C21.4876 12.707 21.9248 12.2697 21.9248 11.7305C21.9248 11.1912 21.4876 10.7539 20.9482 10.7539Z" fill="white"/>
<path d="M21.6387 16.5088C21.457 16.327 21.2051 16.2227 20.9482 16.2227C20.6914 16.2227 20.4395 16.327 20.2578 16.5088C20.0762 16.6904 19.9717 16.9424 19.9717 17.1992C19.9717 17.4561 20.0762 17.708 20.2578 17.8895C20.4395 18.0712 20.6914 18.1758 20.9482 18.1758C21.2061 18.1758 21.457 18.0713 21.6387 17.8895C21.8203 17.708 21.9248 17.4561 21.9248 17.1992C21.9248 16.9424 21.8203 16.6904 21.6387 16.5088Z" fill="white"/>
<path d="M17.285 16.2227H11.1826C10.6433 16.2227 10.2061 16.66 10.2061 17.1992C10.2061 17.7385 10.6433 18.1758 11.1826 18.1758H17.285C17.8244 18.1758 18.2616 17.7385 18.2616 17.1992C18.2616 16.66 17.8244 16.2227 17.285 16.2227Z" fill="white"/>
</g>
<defs>
<clipPath id="clip0">
<rect width="50" height="50" fill="white" transform="translate(0 0.5)"/>
</clipPath>
</defs>
</svg>
