<svg width="51" height="51" viewBox="0 0 51 51" fill="none" xmlns="http://www.w3.org/2000/svg">
<g clip-path="url(#clip0)">
<path d="M48.4367 8.70312H38.0435C37.6329 8.70312 37.3004 9.03081 37.3004 9.43555C37.3004 9.84029 37.6329 10.168 38.0435 10.168H48.4367C48.879 10.168 49.2386 10.5224 49.2386 10.9584V39.1627C49.2386 39.5987 48.879 39.9531 48.4367 39.9531H2.28793C1.84559 39.9531 1.48607 39.5987 1.48607 39.1627V10.9584C1.48607 10.5224 1.84559 10.168 2.28793 10.168H18.6131V11.6328H3.71518C3.30458 11.6328 2.97215 11.9605 2.97215 12.3652V31.7176C2.97215 32.1219 3.30458 32.45 3.71518 32.45C4.12579 32.45 4.45822 32.1219 4.45822 31.7176V13.0977H18.6131V17.0268L15.4319 18.5248C15.1781 18.6446 15.0093 18.9032 15.0093 19.1859V31.1305C15.0093 31.4128 15.1738 31.6699 15.4319 31.7916L25.0419 36.3173C25.2501 36.4138 25.485 36.4089 25.6828 36.3173L31.0852 33.7729C31.4556 33.5986 31.6123 33.1611 31.4355 32.7964C31.2586 32.4313 30.8144 32.2768 30.4444 32.4511L26.1054 34.4947V24.1732L34.2292 20.3475V30.6689L33.1255 31.1885C32.7551 31.3628 32.5984 31.8004 32.7753 32.165C32.9521 32.5301 33.396 32.6846 33.766 32.5103L35.2927 31.7916C35.5508 31.6699 35.7153 31.4128 35.7153 31.1305V19.1859C35.7153 18.9067 35.5504 18.6465 35.2927 18.5248L32.1116 17.0268V13.0977H46.2664V37.0234H4.45822V34.8426C4.45822 34.4378 4.12579 34.1102 3.71518 34.1102C3.30458 34.1102 2.97215 34.4378 2.97215 34.8426V37.7559C2.97215 38.1606 3.30458 38.4883 3.71518 38.4883H47.0095C47.4201 38.4883 47.7525 38.1606 47.7525 37.7559V12.3652C47.7525 11.9605 47.4201 11.6328 47.0095 11.6328H32.1116V10.168H34.8732C35.2838 10.168 35.6162 9.84029 35.6162 9.43555C35.6162 9.03081 35.2838 8.70312 34.8732 8.70312H32.1116V7.23828H38.7741C39.1847 7.23828 39.5172 6.9106 39.5172 6.50586V4.76865C40.3821 4.46614 41.0032 3.65208 41.0032 2.69727C41.0032 1.48572 40.0032 0.5 38.7741 0.5C37.545 0.5 36.545 1.48572 36.545 2.69727C36.545 3.65208 37.1662 4.46614 38.0311 4.76865V5.77344H31.3685C30.9579 5.77344 30.6255 6.10112 30.6255 6.50586V8.70312H26.1054V4.76865C26.9703 4.46614 27.5914 3.65208 27.5914 2.69727C27.5914 1.48572 26.5914 0.5 25.3623 0.5C24.1332 0.5 23.1332 1.48572 23.1332 2.69727C23.1332 3.65208 23.7543 4.46614 24.6193 4.76865V8.70312H20.0991V6.50586C20.0991 6.10112 19.7667 5.77344 19.3561 5.77344H12.6935V4.76865C13.5585 4.46614 14.1796 3.65208 14.1796 2.69727C14.1796 1.48572 13.1796 0.5 11.9505 0.5C10.7214 0.5 9.7214 1.48572 9.7214 2.69727C9.7214 3.65208 10.3425 4.46614 11.2075 4.76865V6.50586C11.2075 6.9106 11.5399 7.23828 11.9505 7.23828H18.6131V8.70312H2.28793C1.02632 8.70312 0 9.71478 0 10.9584V39.1627C0 40.4063 1.02632 41.418 2.28793 41.418H18.3971C18.1096 44.1047 16.3073 45.6736 15.7392 46.1055H12.5821C11.353 46.1055 10.353 47.0912 10.353 48.3027C10.353 49.5143 11.353 50.5 12.5821 50.5H38.1425C39.3717 50.5 40.3717 49.5143 40.3717 48.3027C40.3717 47.0912 39.3717 46.1055 38.1425 46.1055H34.9874C34.4266 45.6752 32.6181 44.0921 32.3283 41.418H48.4367C49.6983 41.418 50.7246 40.4063 50.7246 39.1627V10.9584C50.7246 9.71478 49.6983 8.70312 48.4367 8.70312ZM38.7741 1.96484C39.184 1.96484 39.5172 2.29329 39.5172 2.69727C39.5172 3.10124 39.184 3.42969 38.7741 3.42969C38.3643 3.42969 38.0311 3.10124 38.0311 2.69727C38.0311 2.29329 38.3643 1.96484 38.7741 1.96484ZM25.3623 1.96484C25.7722 1.96484 26.1054 2.29329 26.1054 2.69727C26.1054 3.10124 25.7722 3.42969 25.3623 3.42969C24.9525 3.42969 24.6193 3.10124 24.6193 2.69727C24.6193 2.29329 24.9525 1.96484 25.3623 1.96484ZM11.9505 1.96484C12.3603 1.96484 12.6935 2.29329 12.6935 2.69727C12.6935 3.10124 12.3603 3.42969 11.9505 3.42969C11.5407 3.42969 11.2075 3.10124 11.2075 2.69727C11.2075 2.29329 11.5407 1.96484 11.9505 1.96484ZM20.0991 13.0977H24.6193V14.1982L20.0991 16.3272V13.0977ZM33.2486 19.1859L25.3623 22.8995L17.4761 19.1859L25.3623 15.4719L33.2486 19.1859ZM16.4954 20.3475L24.6193 24.1732V34.4947L16.4954 30.6689V20.3475ZM30.6255 16.3272L26.1054 14.1982V13.0977H30.6255V16.3272ZM30.6255 10.168V11.6328H26.1054V10.168H30.6255ZM24.6193 10.168V11.6328H20.0991V10.168H24.6193ZM38.8856 48.3027C38.8856 48.7067 38.5524 49.0352 38.1425 49.0352H12.5821C12.1723 49.0352 11.8391 48.7067 11.8391 48.3027C11.8391 47.8988 12.1723 47.5703 12.5821 47.5703H38.1425C38.5524 47.5703 38.8856 47.8988 38.8856 48.3027ZM32.8562 46.1055H17.8685C18.7396 45.1026 19.706 43.5397 19.8913 41.418H30.8333C31.0187 43.5397 31.985 45.1026 32.8562 46.1055Z" fill="white"/>
</g>
<defs>
<clipPath id="clip0">
<rect width="50.7246" height="50" fill="white" transform="translate(0 0.5)"/>
</clipPath>
</defs>
</svg>
